<?xml version="1.0" encoding="utf-8"?>
<!-- Generator: Adobe Illustrator 19.2.1, SVG Export Plug-In . SVG Version: 6.00 Build 0)  -->
<svg version="1.1" id="layer" xmlns="http://www.w3.org/2000/svg" xmlns:xlink="http://www.w3.org/1999/xlink" x="0px" y="0px"
	 viewBox="0 0 652 652" style="enable-background:new 0 0 652 652;" xml:space="preserve">
<style type="text/css">
	.st0{fill:#38546E;}
</style>
<path class="st0" d="M149.8,243.7c0-95.4,77.4-172.8,172.8-172.8s172.8,77.4,172.8,172.8s-77.4,172.8-172.8,172.8
	S149.8,339.2,149.8,243.7z M259.8,305c17.8,6.6,38.8,9.2,46.1,9.9c-6.4-1.1-12.4-4.1-17.1-8.6c-8.6-8.6-8.6-23.7-8.6-23.7v-84.3
	c0,0,0-15.8,9.9-26.3c9.9-9.2,22.4-9.2,22.4-9.2h6.6c73.7,0,127.7,40.8,129,93.5c1.3,42.1-17.1,65.2-17.1,65.2s29.6-29.6,29.6-76.4
	c0-64.5-57.9-122.4-148.1-122.4H209.7c0,0,7.9,15.1,11.2,27c4.6,19.1,4.6,38.2,4.6,38.2v100.7c0,0,12.5,9.2,34.2,17.1V305z
	 M396,255.6c-1.3,35.5-30.3,69.8-79,69.8h-4.6c-52-2-86.9-24.4-86.9-24.4v64.5c0,0,35.5,3.9,89.5,3.9c69.8,0,123.8-43.4,123.8-105.3
	c0-80.3-92.2-94.8-123.8-94.8C341.4,172.6,400,182.5,396,255.6z M212.4,561.1c-2.9,0-5.3-2.4-5.3-5.3l0,0v-82.9h-23.7v98.1h73.7
	v-9.9C257.1,561.1,212.4,561.1,212.4,561.1z M453.3,534.7l-56-61.9h-15.1v96.8h15.1v-66.5l60.6,67.8h10.5v-98.7h-15.1v61.9
	L453.3,534.7z M653.5,472.8l-29.6,44.1l-32.9-44.1h-25l41.5,57.3v40.8h24.4v-42.8l38.2-55.3H653.5z M330.2,537.4l-15.1-32.9
	l-16.5,32.9H330.2z M324.3,472.8l46.1,98.1h-25l-11.8-26.3h-38.8l-13.2,26.3h-15.8l47.4-98.7h10.5L324.3,472.8z M484.3,570.9h73.1
	v-9.9h-44.1c-2.9,0-5.3-2.4-5.3-5.3v0v-34.2h40.8v-5.3H508V486c0-2.6,2.6-5.3,5.3-5.3H558v-7.9h-73.7V570.9z M89.9,570.9H163v-9.9
	h-44.1c-2.6-0.3-4.6-2.6-4.6-5.3v-34.2h40.8v-5.3h-40.8V486c0-2.6,2-5.3,4.6-5.3H163v-7.9H90.6v98.1H89.9z M48.5,520.9
	c0-5.3-0.7-10.5-2.6-15.1c-1.3-4.6-3.9-8.6-6.6-12.5c-6.4-6.9-15.6-10.8-25-10.5H6.3c-2.6,0-5.3,2-5.3,4.6v68.5
	c0,2.6,2.6,5.3,5.3,5.3h7.9c9.3,0.2,18.2-3.6,24.4-10.5C45,542,48.5,531.6,48.5,520.9z M70.8,500.5c5.7,12.5,5.9,26.8,0.7,39.5
	c-2.6,6.6-6.6,11.8-11.2,16.5c-5.3,4.6-11.2,7.9-18.4,10.5s-15.8,3.9-25,3.9h-39.5v-71.1c0,0,0-11.2-1.3-17.1
	c-1.3-5.3-3.9-9.9-3.9-9.9h40.8c9.2,0,17.1,0.7,25,2.6c7.1,2,13.8,5.4,19.7,9.9C63.6,489.3,67.5,494.6,70.8,500.5z"/>
</svg>
